<svg xmlns="http://www.w3.org/2000/svg" x="0px" y="0px"
     width="32" height="32"
     viewBox="0 0 224 224"
     style=" fill:#000000;"><g fill="none" fill-rule="nonzero" stroke="none" stroke-width="1" stroke-linecap="butt" stroke-linejoin="miter" stroke-miterlimit="10" stroke-dasharray="" stroke-dashoffset="0" font-family="none" font-weight="none" font-size="none" text-anchor="none" style="mix-blend-mode: normal"><path d="M0,224v-224h224v224z" fill="none"></path><path d="M112,224c-61.85589,0 -112,-50.14411 -112,-112v0c0,-61.85589 50.14411,-112 112,-112v0c61.85589,0 112,50.14411 112,112v0c0,61.85589 -50.14411,112 -112,112z" fill="#e81111"></path><g fill="#ffffff"><g id="surface1"><path d="M56.49,69.3v85.4h111.02v-85.4zM65.03,77.84h93.94v68.32h-14.54469c-0.33359,-0.58379 -0.18348,-1.38442 -0.66719,-1.86813c-1.61793,-1.61793 -3.90304,-2.40188 -6.13812,-2.40188c-2.23508,0 -4.5202,0.78395 -6.13813,2.40188c-0.48371,0.48371 -0.33359,1.28433 -0.66719,1.86813h-37.62938c-0.33359,-0.58379 -0.18348,-1.38442 -0.66719,-1.86813c-1.61793,-1.61793 -3.90304,-2.40188 -6.13812,-2.40188c-2.23508,0 -4.5202,0.78395 -6.13813,2.40188c-0.48371,0.48371 -0.33359,1.28433 -0.66719,1.86813h-14.54469zM94.92,86.38c-9.39067,0 -17.08,7.68933 -17.08,17.08c0,4.75371 2.03492,9.04039 5.20406,12.14281c-5.68777,3.85301 -9.47406,10.4248 -9.47406,17.74719h8.54c0,-7.07219 5.73781,-12.81 12.81,-12.81c7.07219,0 12.81,5.73781 12.81,12.81h8.54c0,-7.32238 -3.78629,-13.89418 -9.47406,-17.74719c3.16914,-3.10242 5.20406,-7.3891 5.20406,-12.14281c0,-9.39067 -7.68933,-17.08 -17.08,-17.08zM94.92,94.92c4.77039,0 8.54,3.76961 8.54,8.54c0,4.77039 -3.76961,8.54 -8.54,8.54c-4.77039,0 -8.54,-3.76961 -8.54,-8.54c0,-4.77039 3.76961,-8.54 8.54,-8.54zM124.81,99.19v8.54h25.62v-8.54zM124.81,116.27v8.54h25.62v-8.54z"></path></g></g><path d="M112,224c-61.85589,0 -112,-50.14411 -112,-112v0c0,-61.85589 50.14411,-112 112,-112v0c61.85589,0 112,50.14411 112,112v0c0,61.85589 -50.14411,112 -112,112z" fill="none"></path><path d="M112,219.52c-59.38166,0 -107.52,-48.13834 -107.52,-107.52v0c0,-59.38166 48.13834,-107.52 107.52,-107.52h0c59.38166,0 107.52,48.13834 107.52,107.52v0c0,59.38166 -48.13834,107.52 -107.52,107.52z" fill="none"></path></g></svg>
