<svg xmlns="http://www.w3.org/2000/svg" x="0px" y="0px"
     width="32" height="32"
     viewBox="0 0 224 224"
     style=" fill:#000000;"><g fill="none" fill-rule="nonzero" stroke="none" stroke-width="1" stroke-linecap="butt" stroke-linejoin="miter" stroke-miterlimit="10" stroke-dasharray="" stroke-dashoffset="0" font-family="none" font-weight="none" font-size="none" text-anchor="none" style="mix-blend-mode: normal"><path d="M0,224v-224h224v224z" fill="none"></path><path d="M112,224c-61.85589,0 -112,-50.14411 -112,-112v0c0,-61.85589 50.14411,-112 112,-112v0c61.85589,0 112,50.14411 112,112v0c0,61.85589 -50.14411,112 -112,112z" fill="#e61389"></path><g fill="#ffffff"><g id="surface1"><path d="M112,52.64219l-1.99062,0.91875l-53.9,24.5l-2.90938,1.225v17.91562h14.7v53.9h-9.8v9.8h-4.9v9.8h117.6v-9.8h-4.9v-9.8h-9.8v-53.9h14.7v-17.91562l-2.90938,-1.225l-53.9,-24.5zM112,63.36094l49,22.20313v1.8375h-98v-1.8375zM77.7,97.20156h9.8v53.9h-9.8zM97.3,97.20156h9.8v53.9h-9.8zM116.9,97.20156h9.8v53.9h-9.8zM136.5,97.20156h9.8v53.9h-9.8z"></path></g></g></g></svg>
