<svg xmlns="http://www.w3.org/2000/svg" x="0px" y="0px"
     width="32" height="32"
     viewBox="0 0 224 224"
     style=" fill:#000000;"><g fill="none" fill-rule="nonzero" stroke="none" stroke-width="1" stroke-linecap="butt" stroke-linejoin="miter" stroke-miterlimit="10" stroke-dasharray="" stroke-dashoffset="0" font-family="none" font-weight="none" font-size="none" text-anchor="none" style="mix-blend-mode: normal"><path d="M0,224v-224h224v224z" fill="none"></path><path d="M112,224c-61.85589,0 -112,-50.14411 -112,-112v0c0,-61.85589 50.14411,-112 112,-112v0c61.85589,0 112,50.14411 112,112v0c0,61.85589 -50.14411,112 -112,112z" fill="#e67e22"></path><g fill="#ffffff"><g id="surface1"><path d="M73.472,48.3v20.0165l-21.973,14.448l-2.107,1.505v84.4305h125.216v-84.4305l-2.107,-1.505l-21.973,-14.448v-20.0165zM92.2845,57.932h39.431c-0.26337,0.7525 -0.4515,1.58025 -0.4515,2.408c0,3.98825 3.23575,7.224 7.224,7.224c0.82775,0 1.6555,-0.18812 2.408,-0.4515v35.3675l-10.535,7.826c-2.35156,-7.99531 -9.61319,-13.846 -18.361,-13.846c-8.74781,0 -16.00944,5.85069 -18.361,13.846l-10.535,-7.826v-35.3675c0.7525,0.26338 1.58025,0.4515 2.408,0.4515c3.98825,0 7.224,-3.23575 7.224,-7.224c0,-0.82775 -0.18812,-1.6555 -0.4515,-2.408zM112,74.788c-3.98825,0 -7.224,3.23575 -7.224,7.224c0,3.98825 3.23575,7.224 7.224,7.224c3.98825,0 7.224,-3.23575 7.224,-7.224c0,-3.98825 -3.23575,-7.224 -7.224,-7.224zM73.472,79.905v15.351l-10.836,-8.127zM150.528,79.905l10.836,7.224l-10.836,8.127zM59.024,96.46l50.1165,37.625l2.8595,2.107l2.8595,-2.107l50.1165,-37.625v62.608h-105.952zM112,106.092c5.73781,0 9.632,3.89419 9.632,9.632v1.204l-9.632,7.224l-9.632,-7.224v-1.204c0,-5.73781 3.89419,-9.632 9.632,-9.632z"></path></g></g></g></svg>
