<svg xmlns="http://www.w3.org/2000/svg" x="0px" y="0px"
     width="32" height="32"
     viewBox="0 0 224 224"
     style=" fill:#000000;"><g fill="none" fill-rule="nonzero" stroke="none" stroke-width="1" stroke-linecap="butt" stroke-linejoin="miter" stroke-miterlimit="10" stroke-dasharray="" stroke-dashoffset="0" font-family="none" font-weight="none" font-size="none" text-anchor="none" style="mix-blend-mode: normal"><path d="M0,224v-224h224v224z" fill="none"></path><path d="M112,224c-61.85589,0 -112,-50.14411 -112,-112v0c0,-61.85589 50.14411,-112 112,-112v0c61.85589,0 112,50.14411 112,112v0c0,61.85589 -50.14411,112 -112,112z" fill="#1b4bbd"></path><g fill="#ffffff"><g id="surface1"><path d="M112,53.2c-32.42422,0 -58.8,26.37578 -58.8,58.8c0,32.42422 26.37578,58.8 58.8,58.8c32.42422,0 58.8,-26.37578 58.8,-58.8c0,-32.42422 -26.37578,-58.8 -58.8,-58.8zM112,63c9.64688,0 18.60469,2.8711 26.18438,7.65625l-3.98125,0.45937l0.91875,9.8l-5.20625,-2.29687l-4.2875,3.675l0.76563,10.10625l10.56563,-3.36875l13.16875,4.2875l-3.36875,6.125l-7.9625,-4.9l-8.575,1.225l-8.42188,6.27813l-4.74687,14.7l9.49375,7.80938c0,0 9.74258,-1.68438 10.25937,-1.68438c0.5168,0 4.13438,8.88125 4.13438,8.88125l-7.80937,24.5c-6.37383,3.04336 -13.5707,4.74687 -21.13125,4.74687c-1.55039,0 -3.08164,-0.17226 -4.59375,-0.30625l-5.35937,-9.34063l5.20625,-19.6l-19.75312,-14.85313h-18.22188l-4.74687,-9.64688l13.16875,-10.4125l19.6,-9.34062l-2.90937,-13.01562l8.42187,-1.8375l3.98125,5.5125l14.7,-2.75625l-2.60313,-11.33125l-10.87187,-0.76562c1.30156,-0.0957 2.64141,-0.30625 3.98125,-0.30625zM106.4875,63.30625l-7.65625,3.21562l-3.675,-0.6125c3.61758,-1.3207 7.36914,-2.16289 11.33125,-2.60312zM63.30625,115.82812l4.74687,5.5125v10.10625l9.1875,10.10625h5.66563l13.93437,17.15c-18.48984,-5.99101 -31.98399,-22.73906 -33.53437,-42.875z"></path></g></g></g></svg>
