<svg xmlns="http://www.w3.org/2000/svg" x="0px" y="0px"
     width="32" height="32"
     viewBox="0 0 224 224"
     style=" fill:#000000;"><g fill="none" fill-rule="nonzero" stroke="none" stroke-width="1" stroke-linecap="butt" stroke-linejoin="miter" stroke-miterlimit="10" stroke-dasharray="" stroke-dashoffset="0" font-family="none" font-weight="none" font-size="none" text-anchor="none" style="mix-blend-mode: normal"><path d="M0,224v-224h224v224z" fill="none"></path><path d="M112,224c-61.85589,0 -112,-50.14411 -112,-112v0c0,-61.85589 50.14411,-112 112,-112v0c61.85589,0 112,50.14411 112,112v0c0,61.85589 -50.14411,112 -112,112z" fill="#f1c40f"></path><g fill="#ffffff"><g id="surface1"><path d="M107.1,47.25v9.8h-9.8v9.8h9.8v9.8h9.8v-9.8h9.8v-9.8h-9.8v-9.8zM63,57.05v112.7h44.1v-14.7h9.8v14.7h44.1v-112.7h-24.5v9.8h14.7v93.1h-24.5v-14.7h-29.4v14.7h-24.5v-93.1h14.7v-9.8zM87.5,86.45v9.8h9.8v-9.8zM107.1,86.45v9.8h9.8v-9.8zM126.7,86.45v9.8h9.8v-9.8zM87.5,106.05v9.8h9.8v-9.8zM107.1,106.05v9.8h9.8v-9.8zM126.7,106.05v9.8h9.8v-9.8zM87.5,125.65v9.8h9.8v-9.8zM107.1,125.65v9.8h9.8v-9.8zM126.7,125.65v9.8h9.8v-9.8z"></path></g></g></g></svg>
