<svg xmlns="http://www.w3.org/2000/svg" x="0px" y="0px"
     width="32" height="32"
     viewBox="0 0 224 224"
     style=" fill:#000000;"><g fill="none" fill-rule="nonzero" stroke="none" stroke-width="1" stroke-linecap="butt" stroke-linejoin="miter" stroke-miterlimit="10" stroke-dasharray="" stroke-dashoffset="0" font-family="none" font-weight="none" font-size="none" text-anchor="none" style="mix-blend-mode: normal"><path d="M0,224v-224h224v224z" fill="none"></path><path d="M112,224c-61.85589,0 -112,-50.14411 -112,-112v0c0,-61.85589 50.14411,-112 112,-112v0c61.85589,0 112,50.14411 112,112v0c0,61.85589 -50.14411,112 -112,112z" fill="#48749f"></path><g fill="#ffffff"><g id="surface1"><path d="M77.7,53.2c-8.0582,0 -14.7,6.6418 -14.7,14.7v88.2c0,8.0582 6.6418,14.7 14.7,14.7h83.3v-117.6zM77.7,63h73.5v78.4h-73.5c-1.72265,0 -3.34961,0.36367 -4.9,0.91875v-74.41875c0,-2.77539 2.12461,-4.9 4.9,-4.9zM87.5,77.7v9.8h53.9v-9.8zM77.7,151.2h73.5v9.8h-73.5c-2.77539,0 -4.9,-2.12461 -4.9,-4.9c0,-2.77539 2.12461,-4.9 4.9,-4.9z"></path></g></g></g></svg>
