<svg xmlns="http://www.w3.org/2000/svg" x="0px" y="0px"
     width="32" height="32"
     viewBox="0 0 224 224"
     style=" fill:#000000;"><g fill="none" fill-rule="nonzero" stroke="none" stroke-width="1" stroke-linecap="butt" stroke-linejoin="miter" stroke-miterlimit="10" stroke-dasharray="" stroke-dashoffset="0" font-family="none" font-weight="none" font-size="none" text-anchor="none" style="mix-blend-mode: normal"><path d="M0,224v-224h224v224z" fill="none"></path><path d="M112,224c-61.85589,0 -112,-50.14411 -112,-112v0c0,-61.85589 50.14411,-112 112,-112v0c61.85589,0 112,50.14411 112,112v0c0,61.85589 -50.14411,112 -112,112z" fill="#9d156b"></path><g fill="#ffffff"><g id="surface1"><path d="M66.85,58.1v107.8h9.8v-98h4.9c19.00664,0 34.3,15.29336 34.3,34.3v34.3h9.8v-34.3c0,-24.28945 -19.81055,-44.1 -44.1,-44.1zM140.35,58.1v98h-4.9c-19.00664,0 -34.3,-15.29336 -34.3,-34.3v-34.3h-9.8v34.3c0,24.28945 19.81055,44.1 44.1,44.1h14.7v-107.8z"></path></g></g></g></svg>
