<svg xmlns="http://www.w3.org/2000/svg" x="0px" y="0px"
     width="32" height="32"
     viewBox="0 0 224 224"
     style=" fill:#000000;"><g fill="none" fill-rule="nonzero" stroke="none" stroke-width="1" stroke-linecap="butt" stroke-linejoin="miter" stroke-miterlimit="10" stroke-dasharray="" stroke-dashoffset="0" font-family="none" font-weight="none" font-size="none" text-anchor="none" style="mix-blend-mode: normal"><path d="M0,224v-224h224v224z" fill="none"></path><path d="M112,224c-61.85589,0 -112,-50.14411 -112,-112v0c0,-61.85589 50.14411,-112 112,-112v0c61.85589,0 112,50.14411 112,112v0c0,61.85589 -50.14411,112 -112,112z" fill="#9b59b6"></path><g fill="#ffffff"><g id="surface1"><path d="M84.67156,69.95625c-5.55109,0 -10.49452,3.61313 -12.08758,8.9343l-5.78102,19.31385l-8.14598,-2.75912l-2.62773,7.8832l8.27736,2.75912l-2.62773,8.9343c-0.09854,0.37774 -0.14781,0.78832 -0.13139,1.18248v29.43063c0,0.13139 0,0.26277 0,0.39416v3.81021c0,2.31569 1.88869,4.20437 4.20437,4.20437h12.61313l1.44525,-4.20437h64.37949l1.44525,4.20437h12.61312c2.31569,0 4.20437,-1.88869 4.20437,-4.20437v-3.54744c0.01642,-0.2135 0.01642,-0.44343 0,-0.65693v-29.43063c0.01642,-0.39416 -0.03284,-0.80474 -0.13139,-1.18248l-2.62773,-8.9343l8.27736,-2.75912l-2.62773,-7.8832l-8.14598,2.75912l-5.78102,-19.31385c-1.59306,-5.32116 -6.53649,-8.9343 -12.08758,-8.9343zM84.67156,78.365h54.65688c1.87226,0 3.53102,1.23175 4.07299,3.02189l5.38686,17.99998h-73.57656l5.38686,-17.99998c0.54197,-1.80657 2.20073,-3.02189 4.07299,-3.02189zM72.71537,107.79563h78.56926l2.75912,9.19707v24.43793h-84.0875v-24.43793zM80.46719,112c-3.48175,0 -6.30656,2.82481 -6.30656,6.30656c0,3.48175 2.82481,6.30656 6.30656,6.30656c3.48175,0 6.30656,-2.82481 6.30656,-6.30656c0,-3.48175 -2.82481,-6.30656 -6.30656,-6.30656zM143.53281,112c-3.48175,0 -6.30656,2.82481 -6.30656,6.30656c0,3.48175 2.82481,6.30656 6.30656,6.30656c3.48175,0 6.30656,-2.82481 6.30656,-6.30656c0,-3.48175 -2.82481,-6.30656 -6.30656,-6.30656zM95.1825,124.61313l-5.25547,12.61313h9.06568l1.83941,-4.20437h22.33574l1.83941,4.20437h9.06568l-5.25547,-12.61313z"></path></g></g></g></svg>
