<svg xmlns="http://www.w3.org/2000/svg" x="0px" y="0px"
     width="32" height="32"
     viewBox="0 0 224 224"
     style=" fill:#000000;"><g fill="none" fill-rule="nonzero" stroke="none" stroke-width="1" stroke-linecap="butt" stroke-linejoin="miter" stroke-miterlimit="10" stroke-dasharray="" stroke-dashoffset="0" font-family="none" font-weight="none" font-size="none" text-anchor="none" style="mix-blend-mode: normal"><path d="M0,224v-224h224v224z" fill="none"></path><path d="M112,224c-61.85589,0 -112,-50.14411 -112,-112v0c0,-61.85589 50.14411,-112 112,-112v0c61.85589,0 112,50.14411 112,112v0c0,61.85589 -50.14411,112 -112,112z" fill="#0fb91a"></path><g fill="#ffffff"><path d="M67.34,71.4c-6.67858,0 -12.18,5.50142 -12.18,12.18v56.84c0,6.67858 5.50142,12.18 12.18,12.18h89.32c6.67858,0 12.18,-5.50142 12.18,-12.18v-56.84c0,-6.67858 -5.50142,-12.18 -12.18,-12.18zM67.34,79.52h89.32c2.29402,0 4.06,1.76598 4.06,4.06v8.12h-93.38v8.12h93.38v40.6c0,2.29402 -1.76598,4.06 -4.06,4.06h-89.32c-2.29402,0 -4.06,-1.76598 -4.06,-4.06v-56.84c0,-2.29402 1.76598,-4.06 4.06,-4.06zM122.16586,107.94c-7.79091,0 -14.19414,6.40323 -14.19414,14.19414c0,7.79091 6.40323,14.19414 14.19414,14.19414c3.01789,0 5.81007,-0.9788 8.12,-2.60887c2.30994,1.63007 5.10211,2.60887 8.12,2.60887c7.79091,0 14.19414,-6.40323 14.19414,-14.19414c0,-7.79091 -6.40323,-14.19414 -14.19414,-14.19414c-3.01789,0 -5.81006,0.9788 -8.12,2.60887c-2.30993,-1.63007 -5.10211,-2.60887 -8.12,-2.60887zM122.16586,116.06c1.13802,0 2.18277,0.31544 3.08465,0.84055c-0.65401,1.62535 -1.03879,3.38499 -1.03879,5.2336c0,1.8486 0.38478,3.60824 1.03879,5.23359c-0.90188,0.52511 -1.94663,0.84055 -3.08465,0.84055c-3.40253,-0.00001 -6.07413,-2.67161 -6.07414,-6.07414c0,-3.40254 2.67161,-6.07414 6.07414,-6.07414zM138.40586,116.06c3.40254,0 6.07414,2.67161 6.07414,6.07414c0,3.40253 -2.67161,6.07413 -6.07414,6.07414c-1.13801,0 -2.18277,-0.31544 -3.08465,-0.84055c0.65401,-1.62535 1.03879,-3.38499 1.03879,-5.23359c0,-1.8486 -0.38478,-3.60825 -1.03879,-5.2336c0.90188,-0.5251 1.94663,-0.84055 3.08465,-0.84055z"></path></g></g></svg>
